REM DIRINDEX 1\2,1\3,1\4,1\6,1\5\7,1\5\8
REM DIRNAME cjc114,folder01,folder02,folder03,folder04,folder05,folder06,folder07
TITLE ""
FILE "DB4500_5th_6C_47.mp3" MP3
  TRACK 01 AUDIO
    TITLE "0:"
    INDEX 01 00:00:00
  TRACK 02 AUDIO
    TITLE "2:cjc114_4984"
    INDEX 01 00:00:01
  TRACK 03 AUDIO
    TITLE "0:"
    INDEX 01 00:01:15
  TRACK 04 AUDIO
    TITLE "3:cjc114_4985"
    INDEX 01 00:01:32
  TRACK 05 AUDIO
    TITLE "0:"
    INDEX 01 00:03:00
  TRACK 06 AUDIO
    TITLE "4:cjc114_4986"
    INDEX 01 00:03:19
  TRACK 07 AUDIO
    TITLE "0:"
    INDEX 01 00:05:67
  TRACK 08 AUDIO
    TITLE "2:cjc114_4987"
    INDEX 01 00:06:30
  TRACK 09 AUDIO
    TITLE "0:"
    INDEX 01 00:07:52
  TRACK 10 AUDIO
    TITLE "3:cjc114_4988"
    INDEX 01 00:07:74
  TRACK 11 AUDIO
    TITLE "0:"
    INDEX 01 00:09:44
  TRACK 12 AUDIO
    TITLE "4:cjc114_4989"
    INDEX 01 00:09:67
  TRACK 13 AUDIO
    TITLE "0:"
    INDEX 01 00:13:63
  TRACK 14 AUDIO
    TITLE "2:cjc114_4990"
    INDEX 01 00:14:31
  TRACK 15 AUDIO
    TITLE "0:"
    INDEX 01 00:15:50
  TRACK 16 AUDIO
    TITLE "3:cjc114_4991"
    INDEX 01 00:15:74
  TRACK 17 AUDIO
    TITLE "0:"
    INDEX 01 00:17:41
  TRACK 18 AUDIO
    TITLE "4:cjc114_4992"
    INDEX 01 00:17:61
  TRACK 19 AUDIO
    TITLE "0:"
    INDEX 01 00:20:73
  TRACK 20 AUDIO
    TITLE "2:cjc114_4993"
    INDEX 01 00:21:39
  TRACK 21 AUDIO
    TITLE "0:"
    INDEX 01 00:22:46
  TRACK 22 AUDIO
    TITLE "3:cjc114_4994"
    INDEX 01 00:22:68
  TRACK 23 AUDIO
    TITLE "0:"
    INDEX 01 00:24:08
  TRACK 24 AUDIO
    TITLE "4:cjc114_4995"
    INDEX 01 00:24:33
  TRACK 25 AUDIO
    TITLE "0:"
    INDEX 01 00:26:58
  TRACK 26 AUDIO
    TITLE "2:cjc114_4996"
    INDEX 01 00:27:26
  TRACK 27 AUDIO
    TITLE "0:"
    INDEX 01 00:28:43
  TRACK 28 AUDIO
    TITLE "3:cjc114_4997"
    INDEX 01 00:28:59
  TRACK 29 AUDIO
    TITLE "0:"
    INDEX 01 00:29:68
  TRACK 30 AUDIO
    TITLE "4:cjc114_4998"
    INDEX 01 00:30:14
  TRACK 31 AUDIO
    TITLE "0:"
    INDEX 01 00:33:73
  TRACK 32 AUDIO
    TITLE "2:cjc114_4999"
    INDEX 01 00:34:42
  TRACK 33 AUDIO
    TITLE "0:"
    INDEX 01 00:35:51
  TRACK 34 AUDIO
    TITLE "3:cjc114_5000"
    INDEX 01 00:35:72
  TRACK 35 AUDIO
    TITLE "0:"
    INDEX 01 00:37:12
  TRACK 36 AUDIO
    TITLE "4:cjc114_5001"
    INDEX 01 00:37:36
  TRACK 37 AUDIO
    TITLE "0:"
    INDEX 01 00:40:15
  TRACK 38 AUDIO
    TITLE "2:cjc114_5002"
    INDEX 01 00:40:60
  TRACK 39 AUDIO
    TITLE "0:"
    INDEX 01 00:41:67
  TRACK 40 AUDIO
    TITLE "3:cjc114_5003"
    INDEX 01 00:42:10
  TRACK 41 AUDIO
    TITLE "0:"
    INDEX 01 00:43:44
  TRACK 42 AUDIO
    TITLE "4:cjc114_5004"
    INDEX 01 00:43:68
  TRACK 43 AUDIO
    TITLE "0:"
    INDEX 01 00:47:19
  TRACK 44 AUDIO
    TITLE "2:cjc114_5005"
    INDEX 01 00:47:60
  TRACK 45 AUDIO
    TITLE "0:"
    INDEX 01 00:48:63
  TRACK 46 AUDIO
    TITLE "3:cjc114_5006"
    INDEX 01 00:49:08
  TRACK 47 AUDIO
    TITLE "0:"
    INDEX 01 00:50:42
  TRACK 48 AUDIO
    TITLE "4:cjc114_5007"
    INDEX 01 00:50:60
  TRACK 49 AUDIO
    TITLE "0:"
    INDEX 01 00:54:13
  TRACK 50 AUDIO
    TITLE "2:cjc114_5008"
    INDEX 01 00:54:56
  TRACK 51 AUDIO
    TITLE "0:"
    INDEX 01 00:55:57
  TRACK 52 AUDIO
    TITLE "3:cjc114_5009"
    INDEX 01 00:56:04
  TRACK 53 AUDIO
    TITLE "0:"
    INDEX 01 00:57:13
  TRACK 54 AUDIO
    TITLE "4:cjc114_5010"
    INDEX 01 00:57:33
  TRACK 55 AUDIO
    TITLE "0:"
    INDEX 01 00:59:55
  TRACK 56 AUDIO
    TITLE "2:cjc114_5011"
    INDEX 01 01:00:29
  TRACK 57 AUDIO
    TITLE "0:"
    INDEX 01 01:01:58
  TRACK 58 AUDIO
    TITLE "3:cjc114_5012"
    INDEX 01 01:02:05
  TRACK 59 AUDIO
    TITLE "0:"
    INDEX 01 01:03:51
  TRACK 60 AUDIO
    TITLE "4:cjc114_5013"
    INDEX 01 01:03:69
  TRACK 61 AUDIO
    TITLE "0:"
    INDEX 01 01:08:50
  TRACK 62 AUDIO
    TITLE "2:cjc114_5014"
    INDEX 01 01:09:20
  TRACK 63 AUDIO
    TITLE "0:"
    INDEX 01 01:10:35
  TRACK 64 AUDIO
    TITLE "3:cjc114_5015"
    INDEX 01 01:10:55
  TRACK 65 AUDIO
    TITLE "0:"
    INDEX 01 01:12:19
  TRACK 66 AUDIO
    TITLE "4:cjc114_5016"
    INDEX 01 01:12:40
  TRACK 67 AUDIO
    TITLE "0:"
    INDEX 01 01:15:15
  TRACK 68 AUDIO
    TITLE "2:cjc114_5017"
    INDEX 01 01:15:56
  TRACK 69 AUDIO
    TITLE "0:"
    INDEX 01 01:17:02
  TRACK 70 AUDIO
    TITLE "3:cjc114_5018"
    INDEX 01 01:17:24
  TRACK 71 AUDIO
    TITLE "0:"
    INDEX 01 01:18:64
  TRACK 72 AUDIO
    TITLE "4:cjc114_5019"
    INDEX 01 01:19:09
  TRACK 73 AUDIO
    TITLE "0:"
    INDEX 01 01:22:56
  TRACK 74 AUDIO
    TITLE "2:cjc114_5020"
    INDEX 01 01:23:24
  TRACK 75 AUDIO
    TITLE "0:"
    INDEX 01 01:24:18
  TRACK 76 AUDIO
    TITLE "3:cjc114_5021"
    INDEX 01 01:24:41
  TRACK 77 AUDIO
    TITLE "0:"
    INDEX 01 01:26:01
  TRACK 78 AUDIO
    TITLE "4:cjc114_5022"
    INDEX 01 01:26:23
  TRACK 79 AUDIO
    TITLE "0:"
    INDEX 01 01:28:53
